<svg width="20" height="21" viewBox="0 0 20 21" fill="none" xmlns="http://www.w3.org/2000/svg">
<path d="M18.3333 14.4984V16.9567C18.3343 17.185 18.2867 17.4109 18.1937 17.62C18.1008 17.8291 17.9644 18.0168 17.7934 18.171C17.6224 18.3253 17.4205 18.4428 17.2006 18.5159C16.9808 18.589 16.7478 18.6162 16.5167 18.5956C13.9523 18.3216 11.4892 17.46 9.32498 16.0799C7.31151 14.8218 5.60443 13.1432 4.32499 11.1633C2.91663 9.02551 2.04019 6.59158 1.76665 4.05869C1.74583 3.83208 1.77321 3.6037 1.84707 3.38807C1.92092 3.17245 2.03963 2.97431 2.19562 2.80626C2.35162 2.63822 2.54149 2.50396 2.75314 2.41203C2.9648 2.3201 3.1936 2.27251 3.42499 2.2723H5.92499C6.32941 2.26838 6.72148 2.40921 7.02812 2.66852C7.33476 2.92784 7.53505 3.28795 7.59165 3.68174C7.69717 4.46846 7.89286 5.24092 8.17499 5.98438C8.2871 6.27768 8.31137 6.59643 8.24491 6.90288C8.17844 7.20932 8.02404 7.49061 7.79998 7.71341L6.74165 8.7541C7.92795 10.8056 9.65536 12.5042 11.7417 13.6708L12.8 12.6301C13.0266 12.4098 13.3126 12.2579 13.6243 12.1926C13.9359 12.1272 14.26 12.1511 14.5583 12.2613C15.3144 12.5387 16.0999 12.7312 16.9 12.8349C17.3048 12.8911 17.6745 13.0916 17.9388 13.3983C18.203 13.705 18.3435 14.0965 18.3333 14.4984Z" stroke="#B00000" stroke-width="2" stroke-linecap="round" stroke-linejoin="round"/>
</svg>
